<mxfile host="app.diagrams.net" modified="2021-10-04T23:37:33.047Z" agent="5.0 (Windows NT 6.3; Win64; x64) AppleWebKit/537.36 (KHTML, like Gecko) Chrome/94.0.4606.61 Safari/537.36" etag="UaPAQTlydGOM9taL0AAF" version="15.4.1" type="github">
  <diagram name="Page-1" id="6133507b-19e7-1e82-6fc7-422aa6c4b21f">
    <mxGraphModel dx="1108" dy="482" grid="1" gridSize="10" guides="1" tooltips="1" connect="1" arrows="1" fold="1" page="1" pageScale="1" pageWidth="1100" pageHeight="850" background="none" math="0" shadow="0">
      <root>
        <mxCell id="0" />
        <mxCell id="1" parent="0" />
        <mxCell id="h9Y8t7x9bO4vjwr3Z0jd-1" value="User" style="swimlane;html=1;fontStyle=1;align=center;verticalAlign=top;childLayout=stackLayout;horizontal=1;startSize=26;horizontalStack=0;resizeParent=1;resizeLast=0;collapsible=1;marginBottom=0;swimlaneFillColor=#ffffff;rounded=0;shadow=0;comic=0;labelBackgroundColor=none;strokeWidth=1;fillColor=none;fontFamily=Verdana;fontSize=12" parent="1" vertex="1">
          <mxGeometry x="520" y="210" width="230" height="346" as="geometry" />
        </mxCell>
        <mxCell id="h9Y8t7x9bO4vjwr3Z0jd-2" value="+ id: mixed" style="text;html=1;strokeColor=none;fillColor=none;align=left;verticalAlign=top;spacingLeft=4;spacingRight=4;whiteSpace=wrap;overflow=hidden;rotatable=0;points=[[0,0.5],[1,0.5]];portConstraint=eastwest;" parent="h9Y8t7x9bO4vjwr3Z0jd-1" vertex="1">
          <mxGeometry y="26" width="230" height="26" as="geometry" />
        </mxCell>
        <mxCell id="h9Y8t7x9bO4vjwr3Z0jd-3" value="+ username: string" style="text;html=1;strokeColor=none;fillColor=none;align=left;verticalAlign=top;spacingLeft=4;spacingRight=4;whiteSpace=wrap;overflow=hidden;rotatable=0;points=[[0,0.5],[1,0.5]];portConstraint=eastwest;" parent="h9Y8t7x9bO4vjwr3Z0jd-1" vertex="1">
          <mxGeometry y="52" width="230" height="26" as="geometry" />
        </mxCell>
        <mxCell id="h9Y8t7x9bO4vjwr3Z0jd-4" value="+ fullname: string" style="text;html=1;strokeColor=none;fillColor=none;align=left;verticalAlign=top;spacingLeft=4;spacingRight=4;whiteSpace=wrap;overflow=hidden;rotatable=0;points=[[0,0.5],[1,0.5]];portConstraint=eastwest;" parent="h9Y8t7x9bO4vjwr3Z0jd-1" vertex="1">
          <mxGeometry y="78" width="230" height="26" as="geometry" />
        </mxCell>
        <mxCell id="h9Y8t7x9bO4vjwr3Z0jd-5" value="+ password: string" style="text;html=1;strokeColor=none;fillColor=none;align=left;verticalAlign=top;spacingLeft=4;spacingRight=4;whiteSpace=wrap;overflow=hidden;rotatable=0;points=[[0,0.5],[1,0.5]];portConstraint=eastwest;" parent="h9Y8t7x9bO4vjwr3Z0jd-1" vertex="1">
          <mxGeometry y="104" width="230" height="26" as="geometry" />
        </mxCell>
        <mxCell id="h9Y8t7x9bO4vjwr3Z0jd-6" value="+ email: string" style="text;html=1;strokeColor=none;fillColor=none;align=left;verticalAlign=top;spacingLeft=4;spacingRight=4;whiteSpace=wrap;overflow=hidden;rotatable=0;points=[[0,0.5],[1,0.5]];portConstraint=eastwest;" parent="h9Y8t7x9bO4vjwr3Z0jd-1" vertex="1">
          <mxGeometry y="130" width="230" height="26" as="geometry" />
        </mxCell>
        <mxCell id="h9Y8t7x9bO4vjwr3Z0jd-7" value="+ phone: string" style="text;html=1;strokeColor=none;fillColor=none;align=left;verticalAlign=top;spacingLeft=4;spacingRight=4;whiteSpace=wrap;overflow=hidden;rotatable=0;points=[[0,0.5],[1,0.5]];portConstraint=eastwest;" parent="h9Y8t7x9bO4vjwr3Z0jd-1" vertex="1">
          <mxGeometry y="156" width="230" height="26" as="geometry" />
        </mxCell>
        <mxCell id="h9Y8t7x9bO4vjwr3Z0jd-8" value="+ created_at: date" style="text;html=1;strokeColor=none;fillColor=none;align=left;verticalAlign=top;spacingLeft=4;spacingRight=4;whiteSpace=wrap;overflow=hidden;rotatable=0;points=[[0,0.5],[1,0.5]];portConstraint=eastwest;" parent="h9Y8t7x9bO4vjwr3Z0jd-1" vertex="1">
          <mxGeometry y="182" width="230" height="26" as="geometry" />
        </mxCell>
        <mxCell id="h9Y8t7x9bO4vjwr3Z0jd-9" value="+ updated_at: date" style="text;html=1;strokeColor=none;fillColor=none;align=left;verticalAlign=top;spacingLeft=4;spacingRight=4;whiteSpace=wrap;overflow=hidden;rotatable=0;points=[[0,0.5],[1,0.5]];portConstraint=eastwest;" parent="h9Y8t7x9bO4vjwr3Z0jd-1" vertex="1">
          <mxGeometry y="208" width="230" height="26" as="geometry" />
        </mxCell>
        <mxCell id="h9Y8t7x9bO4vjwr3Z0jd-10" value="" style="line;html=1;strokeWidth=1;fillColor=none;align=left;verticalAlign=middle;spacingTop=-1;spacingLeft=3;spacingRight=3;rotatable=0;labelPosition=right;points=[];portConstraint=eastwest;" parent="h9Y8t7x9bO4vjwr3Z0jd-1" vertex="1">
          <mxGeometry y="234" width="230" height="8" as="geometry" />
        </mxCell>
        <mxCell id="h9Y8t7x9bO4vjwr3Z0jd-11" value="+ getUsers(?UserRepository): array" style="text;html=1;strokeColor=none;fillColor=none;align=left;verticalAlign=top;spacingLeft=4;spacingRight=4;whiteSpace=wrap;overflow=hidden;rotatable=0;points=[[0,0.5],[1,0.5]];portConstraint=eastwest;" parent="h9Y8t7x9bO4vjwr3Z0jd-1" vertex="1">
          <mxGeometry y="242" width="230" height="26" as="geometry" />
        </mxCell>
        <mxCell id="h9Y8t7x9bO4vjwr3Z0jd-12" value="+ add(UserRepository): string" style="text;html=1;strokeColor=none;fillColor=none;align=left;verticalAlign=top;spacingLeft=4;spacingRight=4;whiteSpace=wrap;overflow=hidden;rotatable=0;points=[[0,0.5],[1,0.5]];portConstraint=eastwest;" parent="h9Y8t7x9bO4vjwr3Z0jd-1" vertex="1">
          <mxGeometry y="268" width="230" height="26" as="geometry" />
        </mxCell>
        <mxCell id="h9Y8t7x9bO4vjwr3Z0jd-13" value="+ edit(UserRepository): string" style="text;html=1;strokeColor=none;fillColor=none;align=left;verticalAlign=top;spacingLeft=4;spacingRight=4;whiteSpace=wrap;overflow=hidden;rotatable=0;points=[[0,0.5],[1,0.5]];portConstraint=eastwest;" parent="h9Y8t7x9bO4vjwr3Z0jd-1" vertex="1">
          <mxGeometry y="294" width="230" height="26" as="geometry" />
        </mxCell>
        <mxCell id="h9Y8t7x9bO4vjwr3Z0jd-14" value="+ delete(UserRepository): string" style="text;html=1;strokeColor=none;fillColor=none;align=left;verticalAlign=top;spacingLeft=4;spacingRight=4;whiteSpace=wrap;overflow=hidden;rotatable=0;points=[[0,0.5],[1,0.5]];portConstraint=eastwest;" parent="h9Y8t7x9bO4vjwr3Z0jd-1" vertex="1">
          <mxGeometry y="320" width="230" height="26" as="geometry" />
        </mxCell>
        <mxCell id="h9Y8t7x9bO4vjwr3Z0jd-15" value="Token" style="swimlane;html=1;fontStyle=1;align=center;verticalAlign=top;childLayout=stackLayout;horizontal=1;startSize=26;horizontalStack=0;resizeParent=1;resizeLast=0;collapsible=1;marginBottom=0;swimlaneFillColor=#ffffff;rounded=0;shadow=0;comic=0;labelBackgroundColor=none;strokeWidth=1;fillColor=none;fontFamily=Verdana;fontSize=12" parent="1" vertex="1">
          <mxGeometry x="190" y="400" width="250" height="250" as="geometry" />
        </mxCell>
        <mxCell id="h9Y8t7x9bO4vjwr3Z0jd-16" value="+ resource_id: mixed" style="text;html=1;strokeColor=none;fillColor=none;align=left;verticalAlign=top;spacingLeft=4;spacingRight=4;whiteSpace=wrap;overflow=hidden;rotatable=0;points=[[0,0.5],[1,0.5]];portConstraint=eastwest;" parent="h9Y8t7x9bO4vjwr3Z0jd-15" vertex="1">
          <mxGeometry y="26" width="250" height="26" as="geometry" />
        </mxCell>
        <mxCell id="h9Y8t7x9bO4vjwr3Z0jd-17" value="+ resource_type: string" style="text;html=1;strokeColor=none;fillColor=none;align=left;verticalAlign=top;spacingLeft=4;spacingRight=4;whiteSpace=wrap;overflow=hidden;rotatable=0;points=[[0,0.5],[1,0.5]];portConstraint=eastwest;" parent="h9Y8t7x9bO4vjwr3Z0jd-15" vertex="1">
          <mxGeometry y="52" width="250" height="26" as="geometry" />
        </mxCell>
        <mxCell id="h9Y8t7x9bO4vjwr3Z0jd-18" value="+ token: string" style="text;html=1;strokeColor=none;fillColor=none;align=left;verticalAlign=top;spacingLeft=4;spacingRight=4;whiteSpace=wrap;overflow=hidden;rotatable=0;points=[[0,0.5],[1,0.5]];portConstraint=eastwest;" parent="h9Y8t7x9bO4vjwr3Z0jd-15" vertex="1">
          <mxGeometry y="78" width="250" height="26" as="geometry" />
        </mxCell>
        <mxCell id="h9Y8t7x9bO4vjwr3Z0jd-19" value="+ created_at: date&lt;span style=&quot;color: rgba(0 , 0 , 0 , 0) ; font-family: monospace ; font-size: 0px&quot;&gt;%3CmxGraphModel%3E%3Croot%3E%3CmxCell%20id%3D%220%22%2F%3E%3CmxCell%20id%3D%221%22%20parent%3D%220%22%2F%3E%3CmxCell%20id%3D%222%22%20value%3D%22%2B%20authArea%22%20style%3D%22text%3Bhtml%3D1%3BstrokeColor%3Dnone%3BfillColor%3Dnone%3Balign%3Dleft%3BverticalAlign%3Dtop%3BspacingLeft%3D4%3BspacingRight%3D4%3BwhiteSpace%3Dwrap%3Boverflow%3Dhidden%3Brotatable%3D0%3Bpoints%3D%5B%5B0%2C0.5%5D%2C%5B1%2C0.5%5D%5D%3BportConstraint%3Deastwest%3B%22%20vertex%3D%221%22%20parent%3D%221%22%3E%3CmxGeometry%20x%3D%22820%22%20y%3D%22888%22%20width%3D%22160%22%20height%3D%2226%22%20as%3D%22geometry%22%2F%3E%3C%2FmxCell%3E%3C%2Froot%3E%3C%2FmxGraphModel%3E: ::&lt;/span&gt;" style="text;html=1;strokeColor=none;fillColor=none;align=left;verticalAlign=top;spacingLeft=4;spacingRight=4;whiteSpace=wrap;overflow=hidden;rotatable=0;points=[[0,0.5],[1,0.5]];portConstraint=eastwest;" parent="h9Y8t7x9bO4vjwr3Z0jd-15" vertex="1">
          <mxGeometry y="104" width="250" height="26" as="geometry" />
        </mxCell>
        <mxCell id="h9Y8t7x9bO4vjwr3Z0jd-20" value="" style="line;html=1;strokeWidth=1;fillColor=none;align=left;verticalAlign=middle;spacingTop=-1;spacingLeft=3;spacingRight=3;rotatable=0;labelPosition=right;points=[];portConstraint=eastwest;" parent="h9Y8t7x9bO4vjwr3Z0jd-15" vertex="1">
          <mxGeometry y="130" width="250" height="8" as="geometry" />
        </mxCell>
        <mxCell id="h9Y8t7x9bO4vjwr3Z0jd-21" value="+ tokenControl(TokenRepository): boolean" style="text;html=1;strokeColor=none;fillColor=none;align=left;verticalAlign=top;spacingLeft=4;spacingRight=4;whiteSpace=wrap;overflow=hidden;rotatable=0;points=[[0,0.5],[1,0.5]];portConstraint=eastwest;" parent="h9Y8t7x9bO4vjwr3Z0jd-15" vertex="1">
          <mxGeometry y="138" width="250" height="26" as="geometry" />
        </mxCell>
        <mxCell id="h9Y8t7x9bO4vjwr3Z0jd-22" value="+ create(TokenRepository): string" style="text;html=1;strokeColor=none;fillColor=none;align=left;verticalAlign=top;spacingLeft=4;spacingRight=4;whiteSpace=wrap;overflow=hidden;rotatable=0;points=[[0,0.5],[1,0.5]];portConstraint=eastwest;" parent="h9Y8t7x9bO4vjwr3Z0jd-15" vertex="1">
          <mxGeometry y="164" width="250" height="26" as="geometry" />
        </mxCell>
        <mxCell id="h9Y8t7x9bO4vjwr3Z0jd-23" value="+ delete(TokenRepository): string" style="text;html=1;strokeColor=none;fillColor=none;align=left;verticalAlign=top;spacingLeft=4;spacingRight=4;whiteSpace=wrap;overflow=hidden;rotatable=0;points=[[0,0.5],[1,0.5]];portConstraint=eastwest;" parent="h9Y8t7x9bO4vjwr3Z0jd-15" vertex="1">
          <mxGeometry y="190" width="250" height="26" as="geometry" />
        </mxCell>
        <mxCell id="h9Y8t7x9bO4vjwr3Z0jd-77" value="+ tokenGenerator(): string" style="text;html=1;strokeColor=none;fillColor=none;align=left;verticalAlign=top;spacingLeft=4;spacingRight=4;whiteSpace=wrap;overflow=hidden;rotatable=0;points=[[0,0.5],[1,0.5]];portConstraint=eastwest;" parent="h9Y8t7x9bO4vjwr3Z0jd-15" vertex="1">
          <mxGeometry y="216" width="250" height="26" as="geometry" />
        </mxCell>
        <mxCell id="h9Y8t7x9bO4vjwr3Z0jd-24" value="&lt;i style=&quot;font-family: &amp;#34;helvetica&amp;#34; ; font-weight: 400&quot;&gt;&amp;lt;&amp;lt;Interface&amp;gt;&amp;gt;&lt;br&gt;&lt;/i&gt;AuthServiceI" style="swimlane;html=1;fontStyle=1;align=center;verticalAlign=top;childLayout=stackLayout;horizontal=1;startSize=41;horizontalStack=0;resizeParent=1;resizeLast=0;collapsible=1;marginBottom=0;swimlaneFillColor=#ffffff;rounded=0;shadow=0;comic=0;labelBackgroundColor=none;strokeWidth=1;fillColor=none;fontFamily=Verdana;fontSize=12" parent="1" vertex="1">
          <mxGeometry x="40" y="40" width="160" height="93" as="geometry" />
        </mxCell>
        <mxCell id="h9Y8t7x9bO4vjwr3Z0jd-25" value="+ logout(UserVM): string" style="text;html=1;strokeColor=none;fillColor=none;align=left;verticalAlign=top;spacingLeft=4;spacingRight=4;whiteSpace=wrap;overflow=hidden;rotatable=0;points=[[0,0.5],[1,0.5]];portConstraint=eastwest;" parent="h9Y8t7x9bO4vjwr3Z0jd-24" vertex="1">
          <mxGeometry y="41" width="160" height="26" as="geometry" />
        </mxCell>
        <mxCell id="h9Y8t7x9bO4vjwr3Z0jd-26" value="+ login(UserVM): array" style="text;html=1;strokeColor=none;fillColor=none;align=left;verticalAlign=top;spacingLeft=4;spacingRight=4;whiteSpace=wrap;overflow=hidden;rotatable=0;points=[[0,0.5],[1,0.5]];portConstraint=eastwest;" parent="h9Y8t7x9bO4vjwr3Z0jd-24" vertex="1">
          <mxGeometry y="67" width="160" height="26" as="geometry" />
        </mxCell>
        <mxCell id="h9Y8t7x9bO4vjwr3Z0jd-69" value="" style="edgeStyle=orthogonalEdgeStyle;rounded=0;orthogonalLoop=1;jettySize=auto;html=1;" parent="1" source="h9Y8t7x9bO4vjwr3Z0jd-29" target="h9Y8t7x9bO4vjwr3Z0jd-26" edge="1">
          <mxGeometry relative="1" as="geometry">
            <Array as="points">
              <mxPoint x="110" y="140" />
              <mxPoint x="110" y="140" />
            </Array>
          </mxGeometry>
        </mxCell>
        <mxCell id="h9Y8t7x9bO4vjwr3Z0jd-70" value="use" style="edgeLabel;html=1;align=center;verticalAlign=middle;resizable=0;points=[];" parent="h9Y8t7x9bO4vjwr3Z0jd-69" vertex="1" connectable="0">
          <mxGeometry x="0.2865" y="1" relative="1" as="geometry">
            <mxPoint as="offset" />
          </mxGeometry>
        </mxCell>
        <mxCell id="h9Y8t7x9bO4vjwr3Z0jd-29" value="LocalAuthService" style="swimlane;html=1;fontStyle=1;align=center;verticalAlign=top;childLayout=stackLayout;horizontal=1;startSize=26;horizontalStack=0;resizeParent=1;resizeLast=0;collapsible=1;marginBottom=0;swimlaneFillColor=#ffffff;rounded=0;shadow=0;comic=0;labelBackgroundColor=none;strokeWidth=1;fillColor=none;fontFamily=Verdana;fontSize=12" parent="1" vertex="1">
          <mxGeometry x="40" y="210" width="160" height="81" as="geometry" />
        </mxCell>
        <mxCell id="h9Y8t7x9bO4vjwr3Z0jd-30" value="+ logout(UserVM): string" style="text;html=1;strokeColor=none;fillColor=none;align=left;verticalAlign=top;spacingLeft=4;spacingRight=4;whiteSpace=wrap;overflow=hidden;rotatable=0;points=[[0,0.5],[1,0.5]];portConstraint=eastwest;" parent="h9Y8t7x9bO4vjwr3Z0jd-29" vertex="1">
          <mxGeometry y="26" width="160" height="26" as="geometry" />
        </mxCell>
        <mxCell id="h9Y8t7x9bO4vjwr3Z0jd-31" value="+ login(UserVM): array" style="text;html=1;strokeColor=none;fillColor=none;align=left;verticalAlign=top;spacingLeft=4;spacingRight=4;whiteSpace=wrap;overflow=hidden;rotatable=0;points=[[0,0.5],[1,0.5]];portConstraint=eastwest;" parent="h9Y8t7x9bO4vjwr3Z0jd-29" vertex="1">
          <mxGeometry y="52" width="160" height="26" as="geometry" />
        </mxCell>
        <mxCell id="h9Y8t7x9bO4vjwr3Z0jd-33" value="UserWiper" style="swimlane;html=1;fontStyle=1;align=center;verticalAlign=top;childLayout=stackLayout;horizontal=1;startSize=26;horizontalStack=0;resizeParent=1;resizeLast=0;collapsible=1;marginBottom=0;swimlaneFillColor=#ffffff;rounded=0;shadow=0;comic=0;labelBackgroundColor=none;strokeWidth=1;fillColor=none;fontFamily=Verdana;fontSize=12" parent="1" vertex="1">
          <mxGeometry x="480" y="600" width="320" height="220" as="geometry" />
        </mxCell>
        <mxCell id="h9Y8t7x9bO4vjwr3Z0jd-34" value="+ id: mixed" style="text;html=1;strokeColor=none;fillColor=none;align=left;verticalAlign=top;spacingLeft=4;spacingRight=4;whiteSpace=wrap;overflow=hidden;rotatable=0;points=[[0,0.5],[1,0.5]];portConstraint=eastwest;" parent="h9Y8t7x9bO4vjwr3Z0jd-33" vertex="1">
          <mxGeometry y="26" width="320" height="26" as="geometry" />
        </mxCell>
        <mxCell id="h9Y8t7x9bO4vjwr3Z0jd-35" value="+ user_id: string" style="text;html=1;strokeColor=none;fillColor=none;align=left;verticalAlign=top;spacingLeft=4;spacingRight=4;whiteSpace=wrap;overflow=hidden;rotatable=0;points=[[0,0.5],[1,0.5]];portConstraint=eastwest;" parent="h9Y8t7x9bO4vjwr3Z0jd-33" vertex="1">
          <mxGeometry y="52" width="320" height="26" as="geometry" />
        </mxCell>
        <mxCell id="h9Y8t7x9bO4vjwr3Z0jd-36" value="+ requested_at: date" style="text;html=1;strokeColor=none;fillColor=none;align=left;verticalAlign=top;spacingLeft=4;spacingRight=4;whiteSpace=wrap;overflow=hidden;rotatable=0;points=[[0,0.5],[1,0.5]];portConstraint=eastwest;" parent="h9Y8t7x9bO4vjwr3Z0jd-33" vertex="1">
          <mxGeometry y="78" width="320" height="26" as="geometry" />
        </mxCell>
        <mxCell id="h9Y8t7x9bO4vjwr3Z0jd-37" value="" style="line;html=1;strokeWidth=1;fillColor=none;align=left;verticalAlign=middle;spacingTop=-1;spacingLeft=3;spacingRight=3;rotatable=0;labelPosition=right;points=[];portConstraint=eastwest;" parent="h9Y8t7x9bO4vjwr3Z0jd-33" vertex="1">
          <mxGeometry y="104" width="320" height="8" as="geometry" />
        </mxCell>
        <mxCell id="h9Y8t7x9bO4vjwr3Z0jd-38" value="+ getRequests(?UserRepository, ?requested_at): array" style="text;html=1;strokeColor=none;fillColor=none;align=left;verticalAlign=top;spacingLeft=4;spacingRight=4;whiteSpace=wrap;overflow=hidden;rotatable=0;points=[[0,0.5],[1,0.5]];portConstraint=eastwest;" parent="h9Y8t7x9bO4vjwr3Z0jd-33" vertex="1">
          <mxGeometry y="112" width="320" height="26" as="geometry" />
        </mxCell>
        <mxCell id="h9Y8t7x9bO4vjwr3Z0jd-39" value="+ add(UserRepository): string" style="text;html=1;strokeColor=none;fillColor=none;align=left;verticalAlign=top;spacingLeft=4;spacingRight=4;whiteSpace=wrap;overflow=hidden;rotatable=0;points=[[0,0.5],[1,0.5]];portConstraint=eastwest;" parent="h9Y8t7x9bO4vjwr3Z0jd-33" vertex="1">
          <mxGeometry y="138" width="320" height="26" as="geometry" />
        </mxCell>
        <mxCell id="h9Y8t7x9bO4vjwr3Z0jd-40" value="+ edit(UserRepository): string" style="text;html=1;strokeColor=none;fillColor=none;align=left;verticalAlign=top;spacingLeft=4;spacingRight=4;whiteSpace=wrap;overflow=hidden;rotatable=0;points=[[0,0.5],[1,0.5]];portConstraint=eastwest;" parent="h9Y8t7x9bO4vjwr3Z0jd-33" vertex="1">
          <mxGeometry y="164" width="320" height="26" as="geometry" />
        </mxCell>
        <mxCell id="h9Y8t7x9bO4vjwr3Z0jd-41" value="+ delete(UserRepository): string" style="text;html=1;strokeColor=none;fillColor=none;align=left;verticalAlign=top;spacingLeft=4;spacingRight=4;whiteSpace=wrap;overflow=hidden;rotatable=0;points=[[0,0.5],[1,0.5]];portConstraint=eastwest;" parent="h9Y8t7x9bO4vjwr3Z0jd-33" vertex="1">
          <mxGeometry y="190" width="320" height="26" as="geometry" />
        </mxCell>
        <mxCell id="h9Y8t7x9bO4vjwr3Z0jd-46" value="UserRepository" style="swimlane;html=1;fontStyle=1;align=center;verticalAlign=top;childLayout=stackLayout;horizontal=1;startSize=31;horizontalStack=0;resizeParent=1;resizeLast=0;collapsible=1;marginBottom=0;swimlaneFillColor=#ffffff;rounded=0;shadow=0;comic=0;labelBackgroundColor=none;strokeWidth=1;fillColor=none;fontFamily=Verdana;fontSize=12" parent="1" vertex="1">
          <mxGeometry x="850" y="39" width="230" height="250" as="geometry" />
        </mxCell>
        <mxCell id="h9Y8t7x9bO4vjwr3Z0jd-47" value="+ id: mixed" style="text;html=1;strokeColor=none;fillColor=none;align=left;verticalAlign=top;spacingLeft=4;spacingRight=4;whiteSpace=wrap;overflow=hidden;rotatable=0;points=[[0,0.5],[1,0.5]];portConstraint=eastwest;" parent="h9Y8t7x9bO4vjwr3Z0jd-46" vertex="1">
          <mxGeometry y="31" width="230" height="26" as="geometry" />
        </mxCell>
        <mxCell id="h9Y8t7x9bO4vjwr3Z0jd-48" value="+ username: string" style="text;html=1;strokeColor=none;fillColor=none;align=left;verticalAlign=top;spacingLeft=4;spacingRight=4;whiteSpace=wrap;overflow=hidden;rotatable=0;points=[[0,0.5],[1,0.5]];portConstraint=eastwest;" parent="h9Y8t7x9bO4vjwr3Z0jd-46" vertex="1">
          <mxGeometry y="57" width="230" height="26" as="geometry" />
        </mxCell>
        <mxCell id="h9Y8t7x9bO4vjwr3Z0jd-49" value="+ fullname: string" style="text;html=1;strokeColor=none;fillColor=none;align=left;verticalAlign=top;spacingLeft=4;spacingRight=4;whiteSpace=wrap;overflow=hidden;rotatable=0;points=[[0,0.5],[1,0.5]];portConstraint=eastwest;" parent="h9Y8t7x9bO4vjwr3Z0jd-46" vertex="1">
          <mxGeometry y="83" width="230" height="26" as="geometry" />
        </mxCell>
        <mxCell id="h9Y8t7x9bO4vjwr3Z0jd-50" value="+ password: string" style="text;html=1;strokeColor=none;fillColor=none;align=left;verticalAlign=top;spacingLeft=4;spacingRight=4;whiteSpace=wrap;overflow=hidden;rotatable=0;points=[[0,0.5],[1,0.5]];portConstraint=eastwest;" parent="h9Y8t7x9bO4vjwr3Z0jd-46" vertex="1">
          <mxGeometry y="109" width="230" height="26" as="geometry" />
        </mxCell>
        <mxCell id="h9Y8t7x9bO4vjwr3Z0jd-51" value="+ email: string" style="text;html=1;strokeColor=none;fillColor=none;align=left;verticalAlign=top;spacingLeft=4;spacingRight=4;whiteSpace=wrap;overflow=hidden;rotatable=0;points=[[0,0.5],[1,0.5]];portConstraint=eastwest;" parent="h9Y8t7x9bO4vjwr3Z0jd-46" vertex="1">
          <mxGeometry y="135" width="230" height="26" as="geometry" />
        </mxCell>
        <mxCell id="h9Y8t7x9bO4vjwr3Z0jd-52" value="+ phone: string" style="text;html=1;strokeColor=none;fillColor=none;align=left;verticalAlign=top;spacingLeft=4;spacingRight=4;whiteSpace=wrap;overflow=hidden;rotatable=0;points=[[0,0.5],[1,0.5]];portConstraint=eastwest;" parent="h9Y8t7x9bO4vjwr3Z0jd-46" vertex="1">
          <mxGeometry y="161" width="230" height="26" as="geometry" />
        </mxCell>
        <mxCell id="h9Y8t7x9bO4vjwr3Z0jd-53" value="+ created_at: date" style="text;html=1;strokeColor=none;fillColor=none;align=left;verticalAlign=top;spacingLeft=4;spacingRight=4;whiteSpace=wrap;overflow=hidden;rotatable=0;points=[[0,0.5],[1,0.5]];portConstraint=eastwest;" parent="h9Y8t7x9bO4vjwr3Z0jd-46" vertex="1">
          <mxGeometry y="187" width="230" height="26" as="geometry" />
        </mxCell>
        <mxCell id="h9Y8t7x9bO4vjwr3Z0jd-54" value="+ updated_at: date" style="text;html=1;strokeColor=none;fillColor=none;align=left;verticalAlign=top;spacingLeft=4;spacingRight=4;whiteSpace=wrap;overflow=hidden;rotatable=0;points=[[0,0.5],[1,0.5]];portConstraint=eastwest;" parent="h9Y8t7x9bO4vjwr3Z0jd-46" vertex="1">
          <mxGeometry y="213" width="230" height="26" as="geometry" />
        </mxCell>
        <mxCell id="h9Y8t7x9bO4vjwr3Z0jd-60" value="UserVM" style="swimlane;html=1;fontStyle=1;align=center;verticalAlign=top;childLayout=stackLayout;horizontal=1;startSize=31;horizontalStack=0;resizeParent=1;resizeLast=0;collapsible=1;marginBottom=0;swimlaneFillColor=#ffffff;rounded=0;shadow=0;comic=0;labelBackgroundColor=none;strokeWidth=1;fillColor=none;fontFamily=Verdana;fontSize=12" parent="1" vertex="1">
          <mxGeometry x="850" y="319" width="230" height="170" as="geometry" />
        </mxCell>
        <mxCell id="h9Y8t7x9bO4vjwr3Z0jd-62" value="+ username: string" style="text;html=1;strokeColor=none;fillColor=none;align=left;verticalAlign=top;spacingLeft=4;spacingRight=4;whiteSpace=wrap;overflow=hidden;rotatable=0;points=[[0,0.5],[1,0.5]];portConstraint=eastwest;" parent="h9Y8t7x9bO4vjwr3Z0jd-60" vertex="1">
          <mxGeometry y="31" width="230" height="26" as="geometry" />
        </mxCell>
        <mxCell id="h9Y8t7x9bO4vjwr3Z0jd-64" value="+ password: string" style="text;html=1;strokeColor=none;fillColor=none;align=left;verticalAlign=top;spacingLeft=4;spacingRight=4;whiteSpace=wrap;overflow=hidden;rotatable=0;points=[[0,0.5],[1,0.5]];portConstraint=eastwest;" parent="h9Y8t7x9bO4vjwr3Z0jd-60" vertex="1">
          <mxGeometry y="57" width="230" height="26" as="geometry" />
        </mxCell>
        <mxCell id="h9Y8t7x9bO4vjwr3Z0jd-65" value="+ email: string" style="text;html=1;strokeColor=none;fillColor=none;align=left;verticalAlign=top;spacingLeft=4;spacingRight=4;whiteSpace=wrap;overflow=hidden;rotatable=0;points=[[0,0.5],[1,0.5]];portConstraint=eastwest;" parent="h9Y8t7x9bO4vjwr3Z0jd-60" vertex="1">
          <mxGeometry y="83" width="230" height="26" as="geometry" />
        </mxCell>
        <mxCell id="h9Y8t7x9bO4vjwr3Z0jd-66" value="+ phone: string" style="text;html=1;strokeColor=none;fillColor=none;align=left;verticalAlign=top;spacingLeft=4;spacingRight=4;whiteSpace=wrap;overflow=hidden;rotatable=0;points=[[0,0.5],[1,0.5]];portConstraint=eastwest;" parent="h9Y8t7x9bO4vjwr3Z0jd-60" vertex="1">
          <mxGeometry y="109" width="230" height="26" as="geometry" />
        </mxCell>
        <mxCell id="h9Y8t7x9bO4vjwr3Z0jd-68" value="+ token: string" style="text;html=1;strokeColor=none;fillColor=none;align=left;verticalAlign=top;spacingLeft=4;spacingRight=4;whiteSpace=wrap;overflow=hidden;rotatable=0;points=[[0,0.5],[1,0.5]];portConstraint=eastwest;" parent="h9Y8t7x9bO4vjwr3Z0jd-60" vertex="1">
          <mxGeometry y="135" width="230" height="26" as="geometry" />
        </mxCell>
        <mxCell id="h9Y8t7x9bO4vjwr3Z0jd-78" value="TokenRepository" style="swimlane;html=1;fontStyle=1;align=center;verticalAlign=top;childLayout=stackLayout;horizontal=1;startSize=30;horizontalStack=0;resizeParent=1;resizeLast=0;collapsible=1;marginBottom=0;swimlaneFillColor=#ffffff;rounded=0;shadow=0;comic=0;labelBackgroundColor=none;strokeWidth=1;fillColor=none;fontFamily=Verdana;fontSize=12" parent="1" vertex="1">
          <mxGeometry x="240" y="230" width="190" height="140" as="geometry" />
        </mxCell>
        <mxCell id="h9Y8t7x9bO4vjwr3Z0jd-79" value="+ resource_id: mixed" style="text;html=1;strokeColor=none;fillColor=none;align=left;verticalAlign=top;spacingLeft=4;spacingRight=4;whiteSpace=wrap;overflow=hidden;rotatable=0;points=[[0,0.5],[1,0.5]];portConstraint=eastwest;" parent="h9Y8t7x9bO4vjwr3Z0jd-78" vertex="1">
          <mxGeometry y="30" width="190" height="26" as="geometry" />
        </mxCell>
        <mxCell id="h9Y8t7x9bO4vjwr3Z0jd-80" value="+ resource_type: string" style="text;html=1;strokeColor=none;fillColor=none;align=left;verticalAlign=top;spacingLeft=4;spacingRight=4;whiteSpace=wrap;overflow=hidden;rotatable=0;points=[[0,0.5],[1,0.5]];portConstraint=eastwest;" parent="h9Y8t7x9bO4vjwr3Z0jd-78" vertex="1">
          <mxGeometry y="56" width="190" height="26" as="geometry" />
        </mxCell>
        <mxCell id="h9Y8t7x9bO4vjwr3Z0jd-81" value="+ token: string" style="text;html=1;strokeColor=none;fillColor=none;align=left;verticalAlign=top;spacingLeft=4;spacingRight=4;whiteSpace=wrap;overflow=hidden;rotatable=0;points=[[0,0.5],[1,0.5]];portConstraint=eastwest;" parent="h9Y8t7x9bO4vjwr3Z0jd-78" vertex="1">
          <mxGeometry y="82" width="190" height="26" as="geometry" />
        </mxCell>
        <mxCell id="h9Y8t7x9bO4vjwr3Z0jd-82" value="+ created_at: date&lt;span style=&quot;color: rgba(0 , 0 , 0 , 0) ; font-family: monospace ; font-size: 0px&quot;&gt;%3CmxGraphModel%3E%3Croot%3E%3CmxCell%20id%3D%220%22%2F%3E%3CmxCell%20id%3D%221%22%20parent%3D%220%22%2F%3E%3CmxCell%20id%3D%222%22%20value%3D%22%2B%20authArea%22%20style%3D%22text%3Bhtml%3D1%3BstrokeColor%3Dnone%3BfillColor%3Dnone%3Balign%3Dleft%3BverticalAlign%3Dtop%3BspacingLeft%3D4%3BspacingRight%3D4%3BwhiteSpace%3Dwrap%3Boverflow%3Dhidden%3Brotatable%3D0%3Bpoints%3D%5B%5B0%2C0.5%5D%2C%5B1%2C0.5%5D%5D%3BportConstraint%3Deastwest%3B%22%20vertex%3D%221%22%20parent%3D%221%22%3E%3CmxGeometry%20x%3D%22820%22%20y%3D%22888%22%20width%3D%22160%22%20height%3D%2226%22%20as%3D%22geometry%22%2F%3E%3C%2FmxCell%3E%3C%2Froot%3E%3C%2FmxGraphModel%3E: ::&lt;/span&gt;" style="text;html=1;strokeColor=none;fillColor=none;align=left;verticalAlign=top;spacingLeft=4;spacingRight=4;whiteSpace=wrap;overflow=hidden;rotatable=0;points=[[0,0.5],[1,0.5]];portConstraint=eastwest;" parent="h9Y8t7x9bO4vjwr3Z0jd-78" vertex="1">
          <mxGeometry y="108" width="190" height="26" as="geometry" />
        </mxCell>
        <mxCell id="cFiX-64Sb0E4231Jm2x3-1" value="&lt;i style=&quot;font-family: &amp;#34;helvetica&amp;#34; ; font-weight: 400&quot;&gt;&amp;lt;&amp;lt;Interface&amp;gt;&amp;gt;&lt;br&gt;&lt;/i&gt;TokenI" style="swimlane;html=1;fontStyle=1;align=center;verticalAlign=top;childLayout=stackLayout;horizontal=1;startSize=40;horizontalStack=0;resizeParent=1;resizeLast=0;collapsible=1;marginBottom=0;swimlaneFillColor=#ffffff;rounded=0;shadow=0;comic=0;labelBackgroundColor=none;strokeWidth=1;fillColor=none;fontFamily=Verdana;fontSize=12" vertex="1" parent="1">
          <mxGeometry x="240" y="40" width="190" height="144" as="geometry" />
        </mxCell>
        <mxCell id="cFiX-64Sb0E4231Jm2x3-7" value="+ tokenControl(TokenI): boolean" style="text;html=1;strokeColor=none;fillColor=none;align=left;verticalAlign=top;spacingLeft=4;spacingRight=4;whiteSpace=wrap;overflow=hidden;rotatable=0;points=[[0,0.5],[1,0.5]];portConstraint=eastwest;" vertex="1" parent="cFiX-64Sb0E4231Jm2x3-1">
          <mxGeometry y="40" width="190" height="26" as="geometry" />
        </mxCell>
        <mxCell id="cFiX-64Sb0E4231Jm2x3-8" value="+ create(TokenI): string" style="text;html=1;strokeColor=none;fillColor=none;align=left;verticalAlign=top;spacingLeft=4;spacingRight=4;whiteSpace=wrap;overflow=hidden;rotatable=0;points=[[0,0.5],[1,0.5]];portConstraint=eastwest;" vertex="1" parent="cFiX-64Sb0E4231Jm2x3-1">
          <mxGeometry y="66" width="190" height="26" as="geometry" />
        </mxCell>
        <mxCell id="cFiX-64Sb0E4231Jm2x3-9" value="+ delete(TokenI): string" style="text;html=1;strokeColor=none;fillColor=none;align=left;verticalAlign=top;spacingLeft=4;spacingRight=4;whiteSpace=wrap;overflow=hidden;rotatable=0;points=[[0,0.5],[1,0.5]];portConstraint=eastwest;" vertex="1" parent="cFiX-64Sb0E4231Jm2x3-1">
          <mxGeometry y="92" width="190" height="26" as="geometry" />
        </mxCell>
        <mxCell id="cFiX-64Sb0E4231Jm2x3-10" value="+ tokenGenerator(): string" style="text;html=1;strokeColor=none;fillColor=none;align=left;verticalAlign=top;spacingLeft=4;spacingRight=4;whiteSpace=wrap;overflow=hidden;rotatable=0;points=[[0,0.5],[1,0.5]];portConstraint=eastwest;" vertex="1" parent="cFiX-64Sb0E4231Jm2x3-1">
          <mxGeometry y="118" width="190" height="26" as="geometry" />
        </mxCell>
        <mxCell id="cFiX-64Sb0E4231Jm2x3-12" value="&lt;i style=&quot;font-family: &amp;#34;helvetica&amp;#34; ; font-weight: 400&quot;&gt;&amp;lt;&amp;lt;Interface&amp;gt;&amp;gt;&lt;br&gt;&lt;/i&gt;UserI" style="swimlane;html=1;fontStyle=1;align=center;verticalAlign=top;childLayout=stackLayout;horizontal=1;startSize=40;horizontalStack=0;resizeParent=1;resizeLast=0;collapsible=1;marginBottom=0;swimlaneFillColor=#ffffff;rounded=0;shadow=0;comic=0;labelBackgroundColor=none;strokeWidth=1;fillColor=none;fontFamily=Verdana;fontSize=12" vertex="1" parent="1">
          <mxGeometry x="520" y="40" width="230" height="144" as="geometry" />
        </mxCell>
        <mxCell id="cFiX-64Sb0E4231Jm2x3-22" value="+ getUsers(?UserRepository): array" style="text;html=1;strokeColor=none;fillColor=none;align=left;verticalAlign=top;spacingLeft=4;spacingRight=4;whiteSpace=wrap;overflow=hidden;rotatable=0;points=[[0,0.5],[1,0.5]];portConstraint=eastwest;" vertex="1" parent="cFiX-64Sb0E4231Jm2x3-12">
          <mxGeometry y="40" width="230" height="26" as="geometry" />
        </mxCell>
        <mxCell id="cFiX-64Sb0E4231Jm2x3-23" value="+ add(UserRepository): string" style="text;html=1;strokeColor=none;fillColor=none;align=left;verticalAlign=top;spacingLeft=4;spacingRight=4;whiteSpace=wrap;overflow=hidden;rotatable=0;points=[[0,0.5],[1,0.5]];portConstraint=eastwest;" vertex="1" parent="cFiX-64Sb0E4231Jm2x3-12">
          <mxGeometry y="66" width="230" height="26" as="geometry" />
        </mxCell>
        <mxCell id="cFiX-64Sb0E4231Jm2x3-24" value="+ edit(UserRepository): string" style="text;html=1;strokeColor=none;fillColor=none;align=left;verticalAlign=top;spacingLeft=4;spacingRight=4;whiteSpace=wrap;overflow=hidden;rotatable=0;points=[[0,0.5],[1,0.5]];portConstraint=eastwest;" vertex="1" parent="cFiX-64Sb0E4231Jm2x3-12">
          <mxGeometry y="92" width="230" height="26" as="geometry" />
        </mxCell>
        <mxCell id="cFiX-64Sb0E4231Jm2x3-25" value="+ delete(UserRepository): string" style="text;html=1;strokeColor=none;fillColor=none;align=left;verticalAlign=top;spacingLeft=4;spacingRight=4;whiteSpace=wrap;overflow=hidden;rotatable=0;points=[[0,0.5],[1,0.5]];portConstraint=eastwest;" vertex="1" parent="cFiX-64Sb0E4231Jm2x3-12">
          <mxGeometry y="118" width="230" height="26" as="geometry" />
        </mxCell>
      </root>
    </mxGraphModel>
  </diagram>
</mxfile>
